<svg width="189" height="27" viewBox="0 0 189 27" fill="none" xmlns="http://www.w3.org/2000/svg">
<path d="M61.9962 26.9357C61.9492 26.8414 61.9492 26.747 61.9022 26.6999C61.3852 26.3225 61.4792 25.8507 61.6672 25.379C62.5132 23.2562 63.3593 21.1335 64.2053 19.0107C64.8634 17.3596 65.5214 15.6614 66.1794 14.0104C66.9315 12.1706 67.6835 10.3309 68.3885 8.49112C68.9996 6.93442 69.6106 5.37771 70.2217 3.821C70.6447 2.68885 71.1147 1.60388 71.5847 0.518901C71.6787 0.33021 71.8667 0.235864 72.0548 0.0471722C72.2898 -7.20504e-07 72.5248 0 72.8068 0C73.4178 0.33021 73.5118 0.943457 73.6998 1.46236C74.4989 3.34928 75.2039 5.23619 75.956 7.12311C76.567 8.67981 77.2251 10.2837 77.8831 11.8876C78.1181 11.7461 78.3061 11.6045 78.5411 11.4158C79.6222 10.5196 80.7032 9.5761 81.8313 8.67982C82.0663 8.49112 82.3953 8.25526 82.6774 8.20809C83.5704 8.06657 83.9934 8.67981 83.7584 9.5761C82.8654 13.1612 81.9723 16.7464 81.0793 20.3315C80.9853 20.7089 80.5622 21.0391 80.1392 21.0863C79.8572 21.1335 79.3402 20.8504 79.2462 20.5674C78.6821 19.1994 78.1181 17.7842 77.5541 16.4162C77.4131 16.0388 77.2251 15.6142 77.037 15.1897C76.191 15.8973 75.3919 16.5105 74.6399 17.1709C73.6528 17.9729 72.7128 18.7276 71.7257 19.5296C70.9267 20.19 70.1276 20.8504 69.3286 21.5108C68.7646 21.9354 68.2005 22.36 67.6835 22.7845C67.0725 23.3034 66.5084 23.8223 65.8974 24.3412C65.0984 25.0016 64.2993 25.6621 63.5003 26.3225C63.2653 26.5112 62.9832 26.6527 62.7012 26.8414C62.5132 26.9357 62.2782 26.9357 61.9962 26.9357ZM65.5214 22.2184C65.6154 22.1241 65.6624 22.0769 65.7564 21.9826C66.4614 21.4165 67.1665 20.8504 67.8715 20.2843C68.5296 19.7654 69.1406 19.1994 69.7986 18.6805C70.7387 17.9257 71.6787 17.1238 72.6658 16.369C73.3238 15.8501 74.0289 15.284 74.6869 14.7651C75.2979 14.2934 75.862 13.7745 76.426 13.3028C75.1099 10.095 73.8409 6.93441 72.5718 3.67948C70.0336 10.0007 67.5425 16.2275 65.0514 22.5015C65.1924 22.4071 65.3334 22.3128 65.5214 22.2184ZM79.6692 13.1612C79.3872 13.3971 79.1052 13.6801 78.7761 13.916C79.1522 14.9066 79.5752 15.8501 79.9982 16.9351C80.4212 15.2368 80.7972 13.633 81.2203 12.0291C81.1733 12.0291 81.1733 12.0291 81.1263 11.9819C80.6092 12.4065 80.1862 12.7367 79.6692 13.1612Z" fill="white"/>
<path d="M188.057 17.5012C184.485 17.5483 180.96 17.5483 177.341 17.5483C177.341 12.0291 177.341 6.50988 177.341 0.943481C180.866 0.943481 184.438 0.943481 188.01 0.943481C188.057 1.65108 188.057 2.40584 188.01 3.16061C185.19 3.20778 182.417 3.20778 179.691 3.20778C179.691 4.76448 179.691 6.27402 179.691 7.78355C182.088 7.78355 184.438 7.78355 186.788 7.78355C186.788 8.53832 186.788 9.29308 186.788 10.0478C184.391 10.0478 182.041 10.0478 179.691 10.0478C179.691 11.8404 179.691 13.5858 179.691 15.3312C182.511 15.3312 185.284 15.3312 188.057 15.3312C188.057 16.0388 188.057 16.7464 188.057 17.5012Z" fill="white"/>
<path d="M0.0470027 7.78356C0.0940053 7.68921 0.188011 7.64204 0.188011 7.59487C0.423024 6.3212 0.940053 5.18905 1.64509 4.15124C2.30313 3.20779 3.14918 2.50019 4.13623 1.88695C5.02928 1.32087 6.01634 0.943487 7.0974 0.801968C7.99045 0.707622 8.9305 0.754795 9.87056 0.801968C11.2806 0.896314 12.5027 1.46239 13.6308 2.26433C14.0538 2.54737 14.4768 2.92475 14.9468 3.30213C14.4298 3.77386 13.9128 4.19842 13.4428 4.62297C13.2547 4.76449 13.1607 4.71732 13.0197 4.5758C12.1737 3.82103 11.2336 3.25496 10.1056 3.0191C8.74249 2.73606 7.47342 2.8304 6.20435 3.39648C4.32424 4.29276 3.10217 5.75512 2.58515 7.78356C2.20912 9.15157 2.35013 10.4724 2.91416 11.7461C3.24318 12.5009 3.66621 13.1613 4.23024 13.7745C5.17029 14.718 6.25135 15.3784 7.56743 15.5671C8.7895 15.803 10.0116 15.6614 11.1396 15.1425C11.8447 14.8123 12.4557 14.2934 13.1137 13.8689C13.5838 14.3406 14.0538 14.8595 14.6178 15.4256C14.0538 15.8501 13.5368 16.3219 12.8787 16.6992C11.2806 17.6427 9.54154 18.0201 7.70843 17.8314C5.82833 17.6427 4.23024 16.9351 2.82016 15.6614C1.41008 14.3878 0.517029 12.8311 0.188011 10.9441C0.188011 10.897 0.141008 10.8498 0.0470027 10.8026C0 10.7555 0 10.7083 0.0470027 10.6611C0.0470027 10.5668 0.0470027 10.4724 0 10.3781C0.0470027 9.48178 0.0470027 8.67984 0.0470027 7.78356Z" fill="white"/>
<path d="M0.046875 10.3309C0.046875 10.378 0.0938777 10.4724 0.0938777 10.5196C0.046875 10.5196 0.046875 10.4252 0.046875 10.3309Z" fill="white"/>
<path d="M158.681 4.05682C159.574 5.23615 160.421 6.41547 161.314 7.59479C162.207 8.82129 163.1 10.0478 163.993 11.2743C164.51 11.9819 165.027 12.6895 165.638 13.4914C165.638 9.24584 165.638 5.09463 165.638 0.943412C166.437 0.943412 167.189 0.943412 167.941 0.943412C167.941 6.46264 167.941 11.9819 167.941 17.5483C167.189 17.5483 166.437 17.5483 165.685 17.5483C165.591 17.5483 165.497 17.4539 165.45 17.3596C163.993 15.3783 162.536 13.3499 161.079 11.3686C159.433 9.1515 157.835 6.98154 156.19 4.76442C156.049 4.57573 155.955 4.38703 155.767 4.104C155.767 8.63259 155.767 13.0668 155.767 17.5011C154.968 17.5011 154.169 17.5011 153.37 17.5011C153.37 11.9819 153.37 6.46264 153.37 0.89624C154.31 0.89624 155.297 0.89624 156.284 0.89624C156.425 0.89624 156.613 1.17927 156.754 1.32079C157.365 2.26425 158.023 3.16054 158.681 4.05682Z" fill="white"/>
<path d="M134.85 0.801944C135.461 0.707598 136.025 0.566079 136.59 0.613252C138.799 0.707598 140.82 1.32085 142.465 2.87755C143.734 4.05688 144.627 5.47206 145.003 7.12312C145.473 9.0572 145.332 10.9913 144.486 12.7839C143.452 15.0482 141.713 16.6049 139.316 17.3596C138.047 17.7842 136.731 17.8314 135.414 17.6427C133.722 17.4068 132.218 16.7464 130.949 15.6142C129.398 14.2934 128.458 12.5952 128.129 10.6139C127.8 8.67982 128.082 6.7929 129.022 5.04751C130.244 2.78321 132.124 1.36802 134.615 0.754772C134.615 0.849118 134.709 0.849117 134.85 0.801944ZM131.654 13.1612C131.795 13.3499 131.936 13.4915 132.077 13.6802C133.534 15.2369 135.367 15.8029 137.389 15.6142C139.034 15.4255 140.444 14.6236 141.478 13.2556C142.606 11.7932 143.029 10.1422 142.747 8.30244C142.512 6.65139 141.76 5.33055 140.491 4.24557C138.987 2.9719 137.248 2.59451 135.367 2.92473C133.393 3.30211 131.936 4.43426 130.996 6.22683C130.244 7.64202 130.056 9.15155 130.385 10.7083C130.667 11.6045 131.043 12.4065 131.654 13.1612Z" fill="white"/>
<path d="M99.834 9.71765C100.962 10.8026 101.15 12.1235 100.962 13.5858C100.821 14.6708 100.398 15.6143 99.599 16.369C98.8469 17.1238 97.9539 17.5484 96.9198 17.6899C95.4628 17.9257 94.0057 17.7842 92.6426 17.1238C91.7025 16.6521 90.9505 15.9917 90.3395 15.1425C90.2925 15.0954 90.2925 14.9067 90.3865 14.8123C90.8095 14.2934 91.2325 13.8217 91.7025 13.3028C91.9846 13.633 92.2666 13.916 92.5486 14.1991C93.5356 15.2369 94.7107 15.7558 96.1208 15.6143C97.3429 15.4727 98.3769 14.718 98.6119 13.3971C98.7999 12.3122 98.3299 11.4159 97.2959 10.897C96.1208 10.3309 94.8987 9.812 93.6767 9.24592C92.7836 8.82137 91.9846 8.20812 91.5145 7.31184C91.2795 6.84011 91.1385 6.3212 91.0915 5.8023C90.9975 4.62298 91.1855 3.49083 91.9376 2.5002C92.5956 1.60391 93.4886 1.13218 94.4757 0.849146C95.0397 0.707627 95.6508 0.613281 96.2148 0.613281C97.7659 0.660454 99.176 1.08501 100.398 2.12282C100.445 2.16999 100.492 2.31151 100.445 2.35868C100.116 2.87758 99.74 3.34931 99.364 3.82104C99.317 3.86821 99.082 3.91539 99.035 3.86821C98.0479 3.06627 96.8728 2.68889 95.6038 2.87758C94.2407 3.06627 93.5356 3.63235 93.3946 4.95319C93.3006 5.8023 93.7237 6.55707 94.5227 6.93445C95.5098 7.40618 96.5438 7.83074 97.5309 8.30247C98.3769 8.67985 99.176 9.05723 99.834 9.71765Z" fill="white"/>
<path d="M116.05 8.53832C116.05 11.5574 116.05 14.5293 116.05 17.5012C115.298 17.5012 114.546 17.5012 113.747 17.5012C113.747 12.7367 113.747 7.97224 113.747 3.16061C111.961 3.16061 110.222 3.16061 108.482 3.16061C108.482 2.40584 108.482 1.65108 108.482 0.943481C112.713 0.943481 116.99 0.943481 121.22 0.943481C121.22 1.65108 121.22 2.40584 121.22 3.16061C119.528 3.16061 117.789 3.16061 116.05 3.16061C116.05 4.95318 116.05 6.74575 116.05 8.53832Z" fill="white"/>
<path d="M34.6886 17.5012C34.2185 16.2747 33.7955 15.0954 33.3255 13.916C33.2785 13.8217 33.1375 13.7273 32.9965 13.7273C30.6463 13.7273 28.2962 13.7273 25.9461 13.7273C25.758 13.7273 25.664 13.8217 25.617 14.0104C25.194 15.1425 24.771 16.2747 24.348 17.4068C24.301 17.5012 24.207 17.5955 24.113 17.5955C23.3139 17.5955 22.5619 17.5955 21.7158 17.5955C23.8779 12.0291 26.0401 6.50989 28.2492 0.990662C29.0482 0.990662 29.8003 0.990662 30.5523 0.990662C30.6933 0.990662 30.8813 1.13218 30.9283 1.2737C31.9154 3.77386 32.9025 6.27403 33.8895 8.77419C34.8766 11.2744 35.8166 13.8217 36.8037 16.3219C36.9447 16.7464 37.1327 17.1238 37.3207 17.5955C36.3806 17.5484 35.5346 17.5484 34.6886 17.5012ZM30.5053 6.46272C30.1763 5.66078 29.8473 4.81167 29.5183 3.86821C28.5312 6.41555 27.5912 8.91571 26.6041 11.4159C28.5312 11.4159 30.4113 11.4159 32.3384 11.4159C32.1034 10.8498 31.9154 10.2837 31.7274 9.71765C31.3514 8.67985 30.9283 7.59487 30.5053 6.46272Z" fill="white"/>
<path d="M45.8281 11.9348C45.8281 8.25528 45.8281 4.62297 45.8281 0.943481C46.5802 0.943481 47.3322 0.943481 48.1313 0.943481C48.1313 5.70795 48.1313 10.4724 48.1313 15.284C51.0454 15.284 53.9596 15.284 56.9208 15.284C56.9208 16.0388 56.9208 16.7936 56.9208 17.5012C53.2545 17.5012 49.5883 17.5012 45.8751 17.5012C45.8281 15.6614 45.8281 13.8217 45.8281 11.9348Z" fill="white"/>
</svg>
