<svg width="427" height="110" viewBox="0 0 427 110" fill="none" xmlns="http://www.w3.org/2000/svg">
<mask id="mask0_2211_20" style="mask-type:luminance" maskUnits="userSpaceOnUse" x="0" y="0" width="110" height="110">
<path d="M54.7219 -0.000159764L0 54.6079L54.7219 109.216L109.444 54.6079L54.7219 -0.000159764Z" fill="white"/>
</mask>
<g mask="url(#mask0_2211_20)">
<path d="M54.7129 0.00439453L-1.64728 56.2473L54.7129 112.49L111.073 56.2473L54.7129 0.00439453ZM1.00316 56.2473L54.7129 2.75862L108.313 56.2473L54.7129 109.736L1.00316 56.2473Z" fill="white"/>
<path d="M52.413 6.78076L-3.9472 63.0018L52.413 119.245L108.773 63.0018L52.413 6.78076ZM-1.18724 62.8925L52.413 9.42569L106.013 62.9144L52.413 116.403L-1.18724 62.8925Z" fill="white"/>
<path d="M50.5729 13.6664V13.5571L-5.78723 69.8875L50.5729 126.13L106.933 69.8875L50.5729 13.6664ZM-3.13679 69.8875L50.4634 16.4206L50.5729 16.3113L104.173 69.8001L50.5729 123.289L-3.13679 69.8875Z" fill="white"/>
<path d="M48.9739 20.5518L-7.38623 76.7947L48.9739 133.038L105.334 76.7947L48.9739 20.5518ZM-4.62627 76.7947L48.9739 23.306L102.574 76.7947L48.9739 130.393L-4.62627 76.7947Z" fill="white"/>
<path d="M47.7034 27.5464L-8.65674 83.7893L47.7034 140.032L104.064 83.7893L47.7034 27.5464ZM-6.0063 83.7893L47.5939 30.3006L47.7034 30.1913L101.304 83.68L47.7034 137.169L-6.0063 83.7893Z" fill="white"/>
<path d="M46.6738 34.5415L46.718 34.6076L46.7843 34.5415H46.6738Z" fill="white"/>
<path d="M46.7178 34.6069L-9.68622 90.7843L46.6739 147.027L103.034 90.7843L46.7178 34.6069ZM-6.92626 90.7843L46.6739 37.2956L46.7835 37.1863L100.384 90.675L46.7835 144.164L-6.92626 90.7843Z" fill="white"/>
<path d="M46.0825 41.6674V41.5581L-10.2557 97.9103L46.1044 154.153L102.465 97.9103L46.1044 41.6674H46.0825ZM46.0825 151.377L-7.49578 97.9103L46.1044 44.3123L99.7046 97.801L46.1044 151.399L46.0825 151.377Z" fill="white"/>
<path d="M45.754 48.6626L-10.6062 104.906L45.754 161.148L102.114 104.906L45.754 48.6626ZM-7.84624 104.906L45.754 51.4168V51.3075L99.3542 104.796L45.754 158.285L-7.84624 104.906Z" fill="white"/>
<path d="M45.754 55.7885V55.6792L-10.6062 112.01L45.754 168.252L102.114 112.01L45.754 55.7666V55.7885ZM-7.84624 111.9L45.754 58.4116L99.3542 111.9L45.754 165.389L-7.84624 111.9Z" fill="white"/>
<path d="M46.0825 62.7827L-10.2557 119.026L46.1044 175.269L102.465 119.026L46.1044 62.7827H46.0825ZM46.0825 172.383L-7.49578 119.026L46.1044 65.5369V65.4276L99.7046 118.916L46.1044 172.405L46.0825 172.383Z" fill="white"/>
<path d="M46.6738 69.7778L46.718 69.844L46.7843 69.7778H46.6738Z" fill="white"/>
<path d="M46.7178 69.8433L-9.68622 126.021L46.6739 182.264L103.034 126.021L46.7397 69.8433H46.7178ZM-6.92626 126.021L46.6739 72.5319H46.7835L100.384 126.021L46.7835 179.509L-6.92626 126.021Z" fill="white"/>
<path d="M47.7034 76.7948L-8.65674 133.016L47.7034 189.259L104.064 133.016L47.7034 76.7729V76.7948ZM-6.0063 133.016L47.5939 79.5272H47.7034L101.304 133.016L47.7034 186.505L-6.0063 133.016Z" fill="white"/>
<path d="M48.9739 83.7899L-7.38623 140.011L48.9739 196.254L105.334 140.011L48.9739 83.7681V83.7899ZM-4.62627 140.011L48.9739 86.413L102.574 139.902L48.9739 193.39L-4.62627 140.011Z" fill="white"/>
<path d="M50.5729 90.7847L-5.78723 147.028L50.5729 203.271L106.933 147.028L50.5729 90.7847ZM-3.13679 146.918L50.4634 93.4296H50.5729L104.173 146.918L50.5729 200.407L-3.13679 146.918Z" fill="white"/>
<path d="M52.413 97.6703V97.561L-3.9472 153.913L52.413 210.156L108.773 153.913L52.413 97.6703ZM-1.18724 153.913L52.413 100.315L106.013 153.804L52.413 207.402L-1.18724 153.913Z" fill="white"/>
<path d="M54.7129 104.337L-1.64728 160.558L54.7129 216.801L111.073 160.558L54.7129 104.315V104.337ZM1.00316 160.449L54.7129 106.851V106.96L108.313 160.449L54.7129 213.938L1.00316 160.449Z" fill="white"/>
</g>
<path d="M134.051 33.7113C134.051 16.8581 148.88 7.04346 165.878 7.04346C178.495 7.04346 189.951 12.9016 194.2 22.8474L186.03 25.9514C182.46 19.2407 175.166 14.8908 165.725 14.8908C153.458 14.8908 143.404 22.1917 143.404 34.1266C143.404 47.3731 155.473 52.7723 166.667 52.7723C177.86 52.7723 185.285 47.6354 188.308 39.4602L196.544 42.1051C191.966 54.215 181.167 60.6196 166.338 60.6196C147.522 60.6196 134.029 49.8213 134.029 33.7332L134.051 33.7113Z" fill="white"/>
<path d="M201.144 50.1706C201.144 43.0664 208.416 40.5527 216.455 39.1756C223.815 37.9296 230.277 37.6673 230.277 33.7764C230.277 30.8036 226.641 28.1805 221.099 28.1805C216.105 28.1805 212.14 30.279 210.585 34.5633L202.634 32.0496C205.328 24.6613 213.433 21.7759 221.318 21.7759C231.241 21.7759 238.929 26.0602 238.929 34.5633V48.0065C238.929 53.9959 239.477 56.5752 240.353 59.4606H231.92C231.175 57.69 230.978 55.832 230.978 53.7992H230.781C228.218 57.8212 222.895 60.5754 216.017 60.5754C208.197 60.5754 201.188 57.2091 201.188 50.1706H201.144ZM230.343 45.4272V41.7986C227.583 42.9134 225.283 43.438 220.573 44.225C216.521 44.9463 210.322 46.0611 210.322 50.0176C210.322 52.8592 213.498 54.4986 217.879 54.4986C225.568 54.4986 230.365 49.493 230.365 45.4053L230.343 45.4272Z" fill="white"/>
<path d="M251.174 22.8251H259.41V28.6833H259.541C262.915 23.9399 268.588 21.7759 274.436 21.7759C282.519 21.7759 290.492 26.0602 290.492 36.3995V59.4606H282.059V39.8313C282.059 33.7764 278.423 29.1642 271.676 29.1642C264.47 29.1642 259.541 33.2518 259.541 40.0936V59.4606H251.174V22.8251Z" fill="white"/>
<path d="M305.584 48.0066V29.8856H296.691V22.847H305.584V12.311H314.018V22.847H326.963V29.8856H314.018V45.2961C314.018 48.9247 314.018 53.4713 320.217 53.4713C322.232 53.4713 324.598 53.0123 326.963 52.0286V59.0672C324.663 60.1164 321.575 60.5755 318.661 60.5755C305.584 60.5755 305.584 51.8756 305.584 47.9847V48.0066Z" fill="white"/>
<path d="M331.739 41.2084C331.739 29.82 341.179 21.7759 354.607 21.7759C368.034 21.7759 377.409 29.82 377.409 41.2084C377.409 52.5969 368.034 60.5754 354.607 60.5754C341.179 60.5754 331.739 52.5969 331.739 41.2084ZM368.626 41.2084C368.626 34.1699 362.887 29.1642 354.607 29.1642C346.327 29.1642 340.588 34.1699 340.588 41.2084C340.588 48.247 346.393 53.1871 354.607 53.1871C362.821 53.1871 368.626 48.1814 368.626 41.2084Z" fill="white"/>
<path d="M387.113 22.8251H395.349V28.6833H395.481C398.854 23.9399 404.527 21.7759 410.376 21.7759C418.458 21.7759 426.432 26.0602 426.432 36.3995V59.4606H417.998V39.8313C417.998 33.7764 414.362 29.1642 407.616 29.1642C400.409 29.1642 395.481 33.2518 395.481 40.0936V59.4606H387.113V22.8251Z" fill="white"/>
<path d="M143.93 102.195C140.841 102.195 138.826 101.43 136.898 99.5502L138.388 98.0857C140.096 99.7469 141.673 100.272 143.973 100.272C146.974 100.272 148.814 98.8944 148.814 96.5555C148.814 95.5063 148.508 94.6101 147.829 94.0418C147.172 93.4734 146.646 93.3204 145.156 93.08L142.769 92.7084C141.148 92.4461 139.899 91.9433 139.001 91.2001C137.972 90.3039 137.446 89.0579 137.446 87.4622C137.446 84.0522 139.943 81.8008 144.017 81.8008C146.646 81.8008 148.376 82.4565 150.129 83.9867L148.727 85.3638C147.456 84.249 146.098 83.6588 143.952 83.6588C141.213 83.6588 139.636 85.1452 139.636 87.3748C139.636 88.3585 139.921 89.1454 140.556 89.6918C141.192 90.2165 142.265 90.6099 143.316 90.7848L145.572 91.1127C147.5 91.3968 148.442 91.7903 149.318 92.5116C150.435 93.4297 151.049 94.8287 151.049 96.4681C151.049 99.9874 148.223 102.151 143.973 102.151L143.93 102.195Z" fill="white"/>
<path d="M161.607 83.9207V102.042H159.416V83.9207H153.48V81.9971H167.521V83.9207H161.585H161.607Z" fill="white"/>
<path d="M183.139 102.02L178.473 93.1232H173.545V102.02H171.354V81.9971H179.218C182.788 81.9971 185.285 84.1174 185.285 87.5711C185.285 90.5002 183.467 92.4019 180.817 92.9484L185.68 102.042H183.117L183.139 102.02ZM179.021 83.9207H173.545V91.2652H179.021C181.408 91.2652 183.117 90.063 183.117 87.6148C183.117 85.1666 181.408 83.9207 179.021 83.9207Z" fill="white"/>
<path d="M202.195 102.02L200.553 97.495H191.594L189.951 102.02H187.629L195.164 81.9971H197.004L204.517 102.02H202.195ZM196.128 85.0573L192.273 95.637H199.939L196.128 85.0573Z" fill="white"/>
<path d="M212.14 83.9207V102.042H209.95V83.9207H204.014V81.9971H218.054V83.9207H212.118H212.14Z" fill="white"/>
<path d="M221.888 102.02V81.9971H234.614V83.9207H224.078V90.9811H233.059V92.9047H224.078V100.14H234.614V102.064H221.888V102.02Z" fill="white"/>
<path d="M251.043 99.9002C249.597 101.408 247.669 102.217 245.566 102.217C243.464 102.217 241.711 101.496 240.331 100.141C238.404 98.2608 238.404 96.2935 238.404 92.031C238.404 87.7685 238.404 85.823 240.331 83.9213C241.711 82.5661 243.529 81.8447 245.566 81.8447C249.487 81.8447 252.138 84.3148 252.729 87.8341H250.539C249.969 85.2984 248.129 83.7465 245.566 83.7465C244.208 83.7465 242.916 84.2711 242.018 85.1891C240.726 86.4788 240.572 87.8341 240.572 92.031C240.572 96.2279 240.726 97.605 242.018 98.8947C242.916 99.7909 244.208 100.294 245.566 100.294C247.056 100.294 248.502 99.7034 249.444 98.5886C250.276 97.605 250.604 96.512 250.604 94.9601V93.4518H245.566V91.5719H252.795V94.7415C252.795 97.0585 252.313 98.5886 251.043 99.922V99.9002Z" fill="white"/>
<path d="M257.877 102.02V81.9971H260.067V102.02H257.877Z" fill="white"/>
<path d="M272.399 102.195C270.384 102.195 268.544 101.473 267.164 100.118C265.237 98.2383 265.237 96.271 265.237 92.0085C265.237 87.746 265.237 85.8006 267.164 83.8989C268.544 82.5436 270.384 81.8223 272.399 81.8223C276.079 81.8223 278.817 84.0082 279.518 87.7897H277.262C276.715 85.3415 274.962 83.7459 272.399 83.7459C271.041 83.7459 269.749 84.2486 268.851 85.1448C267.558 86.4345 267.405 87.8116 267.405 92.0085C267.405 96.2054 267.558 97.5825 268.851 98.8722C269.749 99.7684 271.041 100.271 272.399 100.271C274.962 100.271 276.78 98.6755 277.328 96.2273H279.518C278.861 99.987 276.057 102.195 272.399 102.195Z" fill="white"/>
<path d="M303.438 102.02V92.8828H293.712V102.02H291.522V81.9971H293.712V90.9592H303.438V81.9971H305.628V102.02H303.438Z" fill="white"/>
<path d="M323.196 100.118C321.816 101.473 319.998 102.195 317.961 102.195C315.924 102.195 314.105 101.473 312.725 100.118C310.798 98.2383 310.798 96.271 310.798 92.0085C310.798 87.746 310.798 85.8006 312.725 83.8989C314.105 82.5436 315.924 81.8223 317.961 81.8223C319.998 81.8223 321.816 82.5436 323.196 83.8989C325.123 85.7787 325.123 87.746 325.123 92.0085C325.123 96.271 325.123 98.2164 323.196 100.118ZM321.487 85.1885C320.589 84.2923 319.297 83.7459 317.939 83.7459C316.581 83.7459 315.288 84.2705 314.39 85.1885C313.098 86.4782 312.944 87.8335 312.944 92.0304C312.944 96.2273 313.098 97.5825 314.39 98.8722C315.288 99.7684 316.581 100.315 317.939 100.315C319.297 100.315 320.589 99.7903 321.487 98.8722C322.78 97.5825 322.933 96.2273 322.933 92.0304C322.933 87.8335 322.78 86.4782 321.487 85.1885Z" fill="white"/>
<path d="M330.271 102.02V81.9971H332.461V100.118H342.954V102.042H330.293L330.271 102.02Z" fill="white"/>
<path d="M358.988 100.162C357.739 101.364 355.943 102.02 353.796 102.02H346.765V81.9971H353.796C355.921 81.9971 357.739 82.6528 358.988 83.8551C361.112 85.9317 361.003 88.9919 361.003 91.7899C361.003 94.5878 361.112 98.0852 358.988 100.162ZM357.454 85.3852C356.381 84.3141 355.001 83.9207 353.424 83.9207H348.955V100.118H353.424C355.001 100.118 356.381 99.7246 357.454 98.6536C358.856 97.2109 358.812 94.2381 358.812 91.7899C358.812 89.3417 358.878 86.806 357.454 85.3852Z" fill="white"/>
<path d="M366.15 102.02V81.9971H368.341V102.02H366.15Z" fill="white"/>
<path d="M387.332 102.02L376.446 85.9535V102.02H374.255V81.9971H376.336L387.223 97.9978V81.9971H389.413V102.02H387.332Z" fill="white"/>
<path d="M407.221 99.9002C405.775 101.408 403.848 102.217 401.745 102.217C399.642 102.217 397.89 101.496 396.51 100.141C394.582 98.2608 394.582 96.2935 394.582 92.031C394.582 87.7685 394.582 85.823 396.51 83.9213C397.89 82.5661 399.708 81.8447 401.745 81.8447C405.666 81.8447 408.316 84.3148 408.908 87.8341H406.717C406.148 85.2984 404.308 83.7465 401.745 83.7465C400.387 83.7465 399.095 84.2711 398.196 85.1891C396.904 86.4788 396.751 87.8341 396.751 92.031C396.751 96.2279 396.904 97.605 398.196 98.8947C399.095 99.7909 400.387 100.294 401.745 100.294C403.235 100.294 404.68 99.7034 405.622 98.5886C406.454 97.605 406.783 96.512 406.783 94.9601V93.4518H401.745V91.5719H408.974V94.7415C408.974 97.0585 408.492 98.5886 407.221 99.922V99.9002Z" fill="white"/>
<path d="M419.334 102.195C416.246 102.195 414.231 101.43 412.303 99.5502L413.793 98.0857C415.501 99.7469 417.078 100.272 419.378 100.272C422.379 100.272 424.219 98.8944 424.219 96.5555C424.219 95.5063 423.912 94.6101 423.233 94.0418C422.576 93.4734 422.051 93.3204 420.561 93.08L418.174 92.7084C416.553 92.4461 415.304 91.9433 414.406 91.2001C413.376 90.3039 412.851 89.0579 412.851 87.4622C412.851 84.0522 415.348 81.8008 419.422 81.8008C422.051 81.8008 423.781 82.4565 425.533 83.9867L424.132 85.3638C422.861 84.249 421.503 83.6588 419.356 83.6588C416.618 83.6588 415.041 85.1452 415.041 87.3748C415.041 88.3585 415.326 89.1454 415.961 89.6918C416.596 90.2165 417.67 90.6099 418.721 90.7848L420.977 91.1127C422.905 91.3968 423.847 91.7903 424.723 92.5116C425.84 93.4297 426.453 94.8287 426.453 96.4681C426.453 99.9874 423.628 102.151 419.378 102.151L419.334 102.195Z" fill="white"/>
</svg>
