<svg width="248" height="46" viewBox="0 0 248 46" fill="none" xmlns="http://www.w3.org/2000/svg">
<path d="M42.8834 2H3.05772C2.4741 2 2 2.47408 2 3.05768V34.0184C2 34.4971 2.37709 34.7897 2.84023 34.6692C10.6464 32.629 22.103 28.5813 22.103 25.754C22.103 21.9364 7.56556 19.6567 7.56556 15.5449C7.56556 12.217 17.4371 9.21758 24.8192 8.36017C25.8879 8.23657 26.1101 8.73255 25.3121 9.45384C23.7005 10.9074 21.8385 12.5205 20.5977 14.0695C20.1534 14.6233 20.3396 15.2273 21.0218 15.4229C28.648 17.6102 39.3723 20.9522 39.801 26.0138C40.2532 31.3429 30.4834 38.2741 22.6115 42.6848C21.3785 43.3763 21.5272 43.9412 22.9416 43.9412H42.8834C43.4671 43.9412 43.9412 43.4671 43.9412 42.8835V3.05768C43.9412 2.47408 43.4671 2 42.8834 2Z" fill="#FFFDFD"/>
<path d="M51.9414 22.8342C51.9414 10.6932 59.9673 2.19824 71.9798 2.19824C82.5928 2.19824 89.4916 8.9004 90.823 18.9839L83.5232 20.2472C82.4642 13.3483 78.6139 9.03655 71.7831 9.03655C63.8252 9.03655 59.4454 15.1411 59.4454 22.8342C59.4454 31.1249 63.8252 36.8966 71.8512 36.8966C78.75 36.8966 82.4037 32.4487 83.5913 25.3532L90.7549 26.4803C89.5597 36.5638 82.3961 43.7274 71.8436 43.7274C59.6345 43.7274 51.9414 35.0358 51.9414 22.8266V22.8342Z" fill="#FFFDFD"/>
<path d="M104.615 10.8902C110.848 10.8221 114.365 14.211 115.757 20.6408H115.825V11.6844H122.989V42.8653H115.825V34.0376H115.689C114.297 40.3388 110.644 43.7277 104.607 43.7277C96.5133 43.7277 92.3301 37.487 92.3301 27.4035C92.3301 17.32 96.778 10.8145 104.607 10.8826L104.615 10.8902ZM115.833 27.6077V27.0782C115.833 21.1098 112.648 17.2595 107.542 17.2595C102.103 17.2595 99.4483 21.0417 99.4483 27.4111C99.4483 33.7804 101.967 37.2298 107.542 37.2298C112.648 37.2298 115.833 33.7804 115.833 27.6077Z" fill="#FFFDFD"/>
<path d="M124.389 32.9861L131.092 31.6623C132.09 35.5731 134.08 38.2283 139.049 38.2283C142.832 38.2283 144.693 36.7683 144.753 34.3174C144.753 32.0632 143.165 30.868 136.924 29.7409C128.497 28.0843 125.509 25.1644 125.509 20.1869C125.509 14.5438 129.624 10.8977 137.786 10.8977C145.948 10.8977 149.799 14.5438 151.122 20.5198L144.292 22.0478C143.361 17.9327 141.508 16.208 137.786 16.208C134.405 16.208 132.612 17.5999 132.612 19.8541C132.612 22.1083 133.875 23.5002 140.177 24.5668C148.868 26.1553 151.788 29.34 151.788 34.1207C151.788 39.9605 147.741 43.7428 138.913 43.7428C128.898 43.7428 125.509 39.0982 124.382 32.9936L124.389 32.9861Z" fill="#FFFDFD"/>
<path d="M160.613 42.865H153.449V2.19824H160.613V20.2472H160.681C162.073 13.6131 166.052 10.8899 171.294 10.8899C178.79 10.8899 181.642 15.7992 181.642 22.5695V42.8726H174.479V24.4303C174.479 20.6481 172.822 17.3348 167.973 17.3348C163.397 17.3348 160.605 19.99 160.605 24.4303V42.8726L160.613 42.865Z" fill="#FFFDFD"/>
<path d="M183.172 27.6758C183.172 17.1233 189.405 10.8901 199.095 10.8901C208.785 10.8901 213.362 16.8585 213.362 25.4216C213.362 26.6848 213.362 27.9405 213.226 29.6047H190.335C191.001 34.8469 194.05 37.434 199.163 37.434C204.277 37.434 205.994 34.9755 206.924 31.7909L213.158 33.5837C211.569 39.5521 207.318 43.6671 199.095 43.6671C189.541 43.6671 183.172 37.9635 183.172 27.6758ZM190.404 24.2944H206.728C206.327 19.4532 203.808 16.9266 198.898 16.9266C193.989 16.9266 191.205 19.2489 190.404 24.2944Z" fill="#FFFDFD"/>
<path d="M222.376 42.8653H215.213V11.6844H222.376V20.2399H222.445C223.836 13.6058 227.815 10.8826 233.058 10.8826C240.554 10.8826 243.406 15.7919 243.406 22.5622V42.8653H236.242V24.423C236.242 20.6408 234.586 17.3275 229.737 17.3275C225.16 17.3275 222.369 19.9827 222.369 24.423V42.8653H222.376Z" fill="#FFFDFD"/>
</svg>
