<svg width="473" height="71" viewBox="0 0 473 71" fill="none" xmlns="http://www.w3.org/2000/svg">
<path d="M102.184 57.4069C99.8465 56.1956 98.0272 54.4747 96.7263 52.2474C95.4254 50.0214 94.7749 47.452 94.7749 44.5403V26.3482C94.7749 23.4806 95.4253 20.9463 96.7263 18.7395C98.0272 16.5356 99.8464 14.8265 102.184 13.6122C104.521 12.4008 107.233 11.793 110.321 11.793C113.409 11.793 116.121 12.3891 118.458 13.5799C120.796 14.7707 122.615 16.4475 123.916 18.6073C125.217 20.7686 125.868 23.2618 125.868 26.0824C125.868 26.3042 125.801 26.4803 125.669 26.6125C125.537 26.7447 125.382 26.8107 125.207 26.8107L121.833 27.0089C121.391 27.0089 121.17 26.8107 121.17 26.4143V26.2161C121.17 23.0842 120.179 20.5822 118.194 18.7072C116.209 16.8322 113.585 15.8954 110.321 15.8954C107.057 15.8954 104.433 16.844 102.45 18.7396C100.465 20.6366 99.4721 23.1282 99.4721 26.2161V44.7386C99.4721 47.8264 100.465 50.3181 102.45 52.2151C104.433 54.1107 107.057 55.0592 110.321 55.0592C113.585 55.0592 116.209 54.1224 118.194 52.2474C120.179 50.3739 121.17 47.8705 121.17 44.7386V44.6064C121.17 44.21 121.391 44.0118 121.833 44.0118L125.207 44.21C125.647 44.21 125.868 44.4082 125.868 44.8046C125.868 47.6722 125.217 50.1962 123.916 52.3795C122.615 54.5629 120.796 56.25 118.458 57.4407C116.121 58.6315 113.408 59.2277 110.321 59.2277C107.235 59.2277 104.521 58.6212 102.184 57.4069Z" fill="#F3EFE6"/>
<path d="M166.063 58.1022L163.417 49.7652C163.372 49.633 163.284 49.567 163.152 49.567H143.372C143.24 49.567 143.151 49.633 143.106 49.7652L140.461 58.1022C140.328 58.4546 140.064 58.6307 139.666 58.6307H136.094C135.61 58.6307 135.433 58.3885 135.565 57.9025L150.185 12.8508C150.319 12.4984 150.583 12.3223 150.98 12.3223H155.478C155.875 12.3223 156.139 12.4984 156.273 12.8508L170.959 57.9025L171.025 58.1682C171.025 58.4765 170.826 58.6307 170.43 58.6307H166.858C166.46 58.6307 166.196 58.4546 166.063 58.1022H166.063ZM144.463 45.6305C144.529 45.698 144.606 45.7303 144.695 45.7303H161.763C161.851 45.7303 161.928 45.698 161.994 45.6305C162.061 45.5644 162.071 45.488 162.027 45.3999L153.427 18.4083C153.383 18.3202 153.317 18.2761 153.229 18.2761C153.139 18.2761 153.073 18.3202 153.031 18.4083L144.431 45.3999C144.385 45.488 144.397 45.5643 144.463 45.6305Z" fill="#F3EFE6"/>
<path d="M189.224 58.1022L174.803 13.0491L174.737 12.7848C174.737 12.4765 174.935 12.3223 175.331 12.3223H178.904C179.302 12.3223 179.566 12.4984 179.698 12.8508L191.738 51.6182C191.782 51.7078 191.848 51.7504 191.938 51.7504C192.024 51.7504 192.091 51.7078 192.136 51.6182L204.176 12.8508C204.308 12.4984 204.573 12.3223 204.97 12.3223H208.477C208.961 12.3223 209.137 12.5646 209.005 13.0491L194.452 58.1022C194.319 58.4546 194.054 58.6307 193.657 58.6307H190.019C189.622 58.6307 189.357 58.4547 189.224 58.1022Z" fill="#F3EFE6"/>
<path d="M221.163 57.9686V12.983C221.163 12.5425 221.383 12.3223 221.825 12.3223H225.199C225.639 12.3223 225.86 12.5425 225.86 12.983V57.9686C225.86 58.4106 225.639 58.6307 225.199 58.6307H221.825C221.383 58.6307 221.163 58.4105 221.163 57.9686Z" fill="#F3EFE6"/>
<path d="M268.516 58.1022L265.87 49.7652C265.825 49.633 265.737 49.567 265.605 49.567H245.825C245.693 49.567 245.604 49.633 245.56 49.7652L242.914 58.1022C242.782 58.4546 242.517 58.6307 242.119 58.6307H238.547C238.063 58.6307 237.886 58.3885 238.019 57.9025L252.638 12.8508C252.772 12.4984 253.036 12.3223 253.433 12.3223H257.932C258.328 12.3223 258.592 12.4984 258.726 12.8508L273.412 57.9025L273.478 58.1682C273.478 58.4765 273.28 58.6307 272.883 58.6307H269.311C268.913 58.6307 268.649 58.4546 268.516 58.1022H268.516ZM246.916 45.6305C246.982 45.698 247.059 45.7303 247.148 45.7303H264.216C264.304 45.7303 264.382 45.698 264.448 45.6305C264.514 45.5644 264.524 45.488 264.48 45.3999L255.88 18.4083C255.836 18.3202 255.77 18.2761 255.682 18.2761C255.592 18.2761 255.526 18.3202 255.484 18.4083L246.884 45.3999C246.838 45.488 246.85 45.5643 246.916 45.6305Z" fill="#F3EFE6"/>
<path d="M311.768 58.1683L302.044 37.6592C302 37.527 301.911 37.461 301.779 37.461H290.532C290.356 37.461 290.268 37.5506 290.268 37.7253V57.9687C290.268 58.4107 290.048 58.6308 289.607 58.6308H286.233C285.791 58.6308 285.571 58.4106 285.571 57.9687V12.983C285.571 12.5425 285.791 12.3223 286.233 12.3223H303.366C307.159 12.3223 310.225 13.5028 312.562 15.8608C314.9 18.2218 316.069 21.2979 316.069 25.0905C316.069 28.1768 315.23 30.8022 313.555 32.962C311.878 35.1233 309.607 36.5138 306.741 37.1305C306.564 37.2186 306.52 37.3288 306.608 37.4609L316.531 57.8364C316.575 57.926 316.599 58.0346 316.599 58.1683C316.599 58.4766 316.421 58.6308 316.069 58.6308H312.562C312.166 58.6308 311.902 58.4766 311.768 58.1683H311.768ZM290.268 16.6875V33.4261C290.268 33.6022 290.356 33.6904 290.532 33.6904H302.838C305.396 33.6904 307.469 32.8961 309.056 31.3088C310.643 29.7216 311.438 27.6483 311.438 25.0906C311.438 22.5328 310.643 20.4493 309.056 18.8386C307.469 17.2293 305.396 16.4232 302.838 16.4232H290.532C290.356 16.4232 290.268 16.5128 290.268 16.6876V16.6875Z" fill="#F3EFE6"/>
<path d="M357.396 12.3223H360.77C361.21 12.3223 361.432 12.5426 361.432 12.9831V57.9687C361.432 58.4107 361.21 58.6308 360.77 58.6308H357.462C357.153 58.6308 356.889 58.4766 356.669 58.1683L334.108 21.4521C334.064 21.3186 333.998 21.2642 333.91 21.2862C333.822 21.3082 333.778 21.3846 333.778 21.5182L333.844 57.9686C333.844 58.4106 333.624 58.6307 333.183 58.6307H329.809C329.367 58.6307 329.147 58.4105 329.147 57.9686V12.983C329.147 12.5425 329.367 12.3223 329.809 12.3223H333.117C333.424 12.3223 333.69 12.4765 333.91 12.7848L356.469 49.5009C356.513 49.6331 356.579 49.6889 356.669 49.6669C356.755 49.6448 356.801 49.5671 356.801 49.4349L356.735 12.9831C356.735 12.5426 356.955 12.3223 357.396 12.3223Z" fill="#F3EFE6"/>
<path d="M376.104 57.9686V12.983C376.104 12.5425 376.325 12.3223 376.767 12.3223H380.141C380.581 12.3223 380.801 12.5425 380.801 12.983V57.9686C380.801 58.4106 380.581 58.6307 380.141 58.6307H376.767C376.325 58.6307 376.104 58.4105 376.104 57.9686Z" fill="#F3EFE6"/>
<path d="M423.723 12.3223H427.097C427.537 12.3223 427.759 12.5426 427.759 12.9831V57.9687C427.759 58.4107 427.537 58.6308 427.097 58.6308H423.789C423.48 58.6308 423.216 58.4766 422.996 58.1683L400.435 21.4521C400.391 21.3186 400.325 21.2642 400.237 21.2862C400.149 21.3082 400.105 21.3846 400.105 21.5182L400.171 57.9686C400.171 58.4106 399.951 58.6307 399.51 58.6307H396.136C395.694 58.6307 395.474 58.4105 395.474 57.9686V12.983C395.474 12.5425 395.694 12.3223 396.136 12.3223H399.444C399.751 12.3223 400.017 12.4765 400.237 12.7848L422.796 49.5009C422.84 49.6331 422.906 49.6889 422.996 49.6669C423.083 49.6448 423.128 49.5671 423.128 49.4349L423.062 12.9831C423.062 12.5426 423.282 12.3223 423.723 12.3223Z" fill="#F3EFE6"/>
<path d="M471.738 16.4232H447.392C447.216 16.4232 447.128 16.5128 447.128 16.6876V33.0282C447.128 33.2059 447.216 33.294 447.392 33.294H464.461C464.901 33.294 465.122 33.5142 465.122 33.9547V36.7327C465.122 37.1747 464.901 37.3949 464.461 37.3949H447.392C447.216 37.3949 447.128 37.4844 447.128 37.6592V54.2641C447.128 54.4418 447.216 54.5298 447.392 54.5298H471.738C472.178 54.5298 472.4 54.7501 472.4 55.1906V57.9686C472.4 58.4106 472.178 58.6307 471.738 58.6307H443.093C442.651 58.6307 442.431 58.4105 442.431 57.9686V12.983C442.431 12.5425 442.651 12.3223 443.093 12.3223H471.738C472.178 12.3223 472.4 12.5425 472.4 12.983V15.7625C472.4 16.203 472.178 16.4232 471.738 16.4232Z" fill="#F3EFE6"/>
<path fill-rule="evenodd" clip-rule="evenodd" d="M35.3468 0.769531C29.5233 0.769531 24.5927 4.59273 22.9282 9.86606C22.8592 9.86491 22.7899 9.86442 22.7206 9.86442C15.5298 9.86442 9.70054 15.6937 9.70054 22.8844C9.70054 22.9537 9.70111 23.0229 9.70217 23.092C4.42871 24.7565 0.605469 29.687 0.605469 35.5105C0.605469 41.3339 4.42871 46.2644 9.70209 47.9287C9.70103 47.9979 9.70046 48.067 9.70046 48.1362C9.70046 55.3269 15.5298 61.1561 22.7205 61.1561C22.7899 61.1561 22.8591 61.1554 22.9282 61.1543C24.5926 66.4279 29.5232 70.251 35.3467 70.251C41.1702 70.251 46.1008 66.4279 47.7651 61.1543C47.8342 61.1554 47.9034 61.1561 47.9725 61.1561C55.1633 61.1561 60.9926 55.3268 60.9926 48.1362C60.9926 48.067 60.9919 47.9979 60.9908 47.9287C66.2644 46.2643 70.0876 41.3341 70.0876 35.5105C70.0876 29.6869 66.2644 24.7565 60.9908 23.0921C60.9919 23.023 60.9926 22.9538 60.9926 22.8844C60.9926 15.6937 55.1632 9.8645 47.9725 9.8645C47.9034 9.8645 47.8342 9.86508 47.7651 9.86614C46.1008 4.59273 41.1705 0.769531 35.3468 0.769531ZM35.3468 3.26482C30.8117 3.26482 26.9465 6.1331 25.4666 10.1545C30.3038 11.193 34.1435 14.9187 35.3466 19.6926C36.5499 14.9185 40.3894 11.1928 45.2271 10.1544C43.747 6.1331 39.8818 3.26482 35.3468 3.26482ZM3.10078 35.5105C3.10078 30.9755 5.96909 27.1103 9.99056 25.6304C11.029 30.4676 14.7548 34.3072 19.5288 35.5103C14.7546 36.7136 11.0288 40.553 9.99048 45.3907C5.96909 43.9106 3.10078 40.0454 3.10078 35.5105ZM35.3468 67.7558C30.8117 67.7558 26.9465 64.8877 25.4666 60.866C30.3038 59.8276 34.1435 56.1018 35.3466 51.328C36.5499 56.1022 40.3894 59.8276 45.2271 60.866C43.747 64.8877 39.8818 67.7558 35.3468 67.7558ZM67.5924 35.5105C67.5924 40.0454 64.7243 43.9106 60.7026 45.3907C59.6642 40.553 55.9387 36.7136 51.1645 35.5103C55.9383 34.3072 59.6642 30.4676 60.7026 25.6304C64.7243 27.1103 67.5924 30.9755 67.5924 35.5105ZM22.7206 12.3597C16.9079 12.3597 12.1958 17.0718 12.1958 22.8844C12.1958 28.622 16.7868 33.2871 22.4957 33.4068C23.3902 27.9012 27.7374 23.5541 33.243 22.6597C33.1233 16.9508 28.4581 12.3598 22.7205 12.3598L22.7206 12.3597ZM37.4504 22.6595C42.9561 23.5538 47.3036 27.901 48.198 33.4067C53.9065 33.2869 58.4975 28.6217 58.4975 22.8844C58.4975 17.0717 53.7853 12.3596 47.9727 12.3596C42.2353 12.3596 37.5698 16.9506 37.4504 22.6594V22.6595ZM48.198 37.614C53.9065 37.7337 58.4975 42.3988 58.4975 48.1362C58.4975 53.9488 53.7853 58.6608 47.9727 58.6608C42.2353 58.6608 37.5701 54.0699 37.4504 48.3615C42.9561 47.4671 47.3036 43.1196 48.198 37.614ZM33.2431 48.3615C33.1233 54.0699 28.4581 58.6608 22.7206 58.6608C16.9079 58.6608 12.1958 53.9487 12.1958 48.1362C12.1958 42.3988 16.7868 37.7334 22.4957 37.614C23.3899 43.1196 27.7372 47.4671 33.243 48.3615H33.2431ZM24.822 35.5105C24.822 29.6978 29.5341 24.9857 35.3469 24.9857C41.1596 24.9857 45.8717 29.6978 45.8717 35.5105C45.8717 41.3231 41.1595 46.0352 35.3469 46.0352C29.5342 46.0352 24.822 41.3231 24.822 35.5105Z" fill="#E09400"/>
<path fill-rule="evenodd" clip-rule="evenodd" d="M22.7402 9.60565C24.493 4.32224 29.4744 0.510742 35.3468 0.510742C41.2193 0.510742 46.2005 4.32224 47.9531 9.60573C47.9596 9.60572 47.966 9.60571 47.9725 9.60571C55.3064 9.60571 61.2519 15.551 61.2519 22.8849C61.2519 22.8915 61.2518 22.898 61.2518 22.9045C66.5355 24.6574 70.3468 29.6386 70.3468 35.5109C70.3468 41.3833 66.5355 46.3644 61.2518 48.1172C61.2518 48.1237 61.2519 48.1302 61.2519 48.1366C61.2519 55.4704 55.3065 61.4158 47.9725 61.4158C47.966 61.4158 47.9595 61.4158 47.9531 61.4158C46.2004 66.6994 41.219 70.5107 35.3467 70.5107C29.4744 70.5107 24.493 66.6994 22.7401 61.4158C22.7336 61.4158 22.7271 61.4158 22.7205 61.4158C15.3866 61.4158 9.44118 55.4705 9.44118 48.1366C9.44118 48.1302 9.44118 48.1237 9.44119 48.1172C4.15773 46.3646 0.346191 41.3832 0.346191 35.5109C0.346191 29.6387 4.15773 24.6573 9.44128 22.9044C9.44127 22.8979 9.44126 22.8914 9.44126 22.8848C9.44126 15.551 15.3866 9.60563 22.7206 9.60563C22.7271 9.60563 22.7336 9.60564 22.7402 9.60565ZM35.3468 1.02926C29.6396 1.02926 24.8069 4.77601 23.1755 9.94456L23.1173 10.129L22.9239 10.1258C22.8565 10.1246 22.7887 10.1242 22.7206 10.1242C15.6729 10.1242 9.95978 15.8373 9.95978 22.8848C9.95978 22.9527 9.96034 23.0206 9.96138 23.0885L9.96435 23.2816L9.78019 23.3397C4.61149 24.9712 0.86471 29.8038 0.86471 35.5109C0.86471 41.218 4.61149 46.0507 9.7801 47.6819L9.96427 47.7401L9.9613 47.9332C9.96026 48.0011 9.9597 48.0689 9.9597 48.1366C9.9597 55.1841 15.6729 60.8973 22.7205 60.8973C22.7881 60.8973 22.8559 60.8966 22.9242 60.8956L23.1173 60.8926L23.1754 61.0768C24.8068 66.2456 29.6395 69.9922 35.3467 69.9922C41.0538 69.9922 45.8866 66.2456 47.5178 61.0768L47.5759 60.8926L47.769 60.8956C47.8374 60.8966 47.9051 60.8973 47.9725 60.8973C55.0201 60.8973 60.7333 55.1841 60.7333 48.1366C60.7333 48.0956 60.7331 48.0543 60.7326 48.0129C60.7323 47.9864 60.732 47.9598 60.7316 47.9332L60.7286 47.7401L60.9128 47.6819C66.0816 46.0506 69.8283 41.2182 69.8283 35.5109C69.8283 29.8037 66.0816 24.9712 60.9128 23.3398L60.7286 23.2817L60.7316 23.0886C60.7326 23.0203 60.7333 22.9524 60.7333 22.8849C60.7333 15.8373 55.02 10.1242 47.9725 10.1242C47.9048 10.1242 47.837 10.1248 47.769 10.1258L47.5759 10.1288L47.5178 9.94463C45.8867 4.77601 41.0541 1.02926 35.3468 1.02926ZM25.2232 10.0655C26.7395 5.94535 30.6996 3.00603 35.3468 3.00603C39.9939 3.00603 43.954 5.94535 45.4704 10.0654L45.5735 10.3457L45.2815 10.4084C40.5406 11.426 36.7772 15.0777 35.598 19.7565L35.0952 19.7565C33.9161 15.0779 30.1526 11.4262 25.4121 10.4085L25.1201 10.3458L25.2232 10.0655ZM25.816 9.96841C30.3153 11.0428 33.9251 14.4062 35.3466 18.7596C36.7682 14.4061 40.3779 11.0426 44.8775 9.96832C43.3615 6.19117 39.6651 3.52455 35.3468 3.52455C31.0283 3.52455 27.332 6.19117 25.816 9.96841ZM37.1912 22.6545C37.3135 16.8049 42.0939 12.1008 47.9727 12.1008C53.9284 12.1008 58.7567 16.929 58.7567 22.8848C58.7567 28.7636 54.0526 33.5436 48.2034 33.6664L47.9782 33.6711L47.9421 33.4488C47.0656 28.0532 42.8044 23.7922 37.4088 22.9159L37.1911 22.8805L37.1912 22.6545ZM37.7166 22.4425C37.9479 16.9783 42.4514 12.6194 47.9727 12.6194C53.6421 12.6194 58.2382 17.2154 58.2382 22.8848C58.2382 28.406 53.8793 32.9092 48.4154 33.1409C47.4363 27.7065 43.151 23.4216 37.7166 22.4425ZM11.9365 22.8849C11.9365 16.9291 16.7647 12.1009 22.7206 12.1009H23.3513L23.3339 12.1181C28.9285 12.4318 33.3839 17.0099 33.5022 22.6547L33.5069 22.8799L33.2846 22.916C27.8891 23.7926 23.6282 28.0533 22.7516 33.4489L22.7155 33.6712L22.4903 33.6665C16.6406 33.5439 11.9365 28.7638 11.9365 22.8849ZM22.6791 12.6195C17.0287 12.6419 12.455 17.2293 12.455 22.8849C12.455 28.4062 16.814 32.9094 22.2783 33.141C23.2575 27.7067 27.5424 23.4219 32.9767 22.4427C32.7452 16.9785 28.2419 12.6195 22.7205 12.6195H22.6791ZM35.3468 25.2455C29.6773 25.2455 25.0812 29.8415 25.0812 35.5109C25.0812 41.1803 29.6774 45.7764 35.3468 45.7764C41.0163 45.7764 45.6124 41.1804 45.6124 35.5109C45.6124 29.8415 41.0164 25.2455 35.3468 25.2455ZM24.5627 35.5109C24.5627 29.5551 29.3909 24.7269 35.3468 24.7269C41.3027 24.7269 46.131 29.5551 46.131 35.5109C46.131 41.4668 41.3027 46.2949 35.3468 46.2949C29.391 46.2949 24.5627 41.4667 24.5627 35.5109ZM10.1813 25.2844L10.244 25.5764C11.2617 30.3168 14.9135 34.0803 19.5921 35.2594L19.5921 35.7622C14.9133 36.9414 11.2615 40.7048 10.244 45.4455L10.1813 45.7376L9.90092 45.6344C5.78086 44.1181 2.8415 40.158 2.8415 35.5109C2.8415 30.8638 5.78086 26.9038 9.90101 25.3875L10.1813 25.2844ZM60.5118 25.2844L60.7921 25.3875C64.9125 26.9038 67.8517 30.8638 67.8517 35.5109C67.8517 40.158 64.9125 44.1181 60.7921 45.6344L60.5118 45.7376L60.4491 45.4455C59.4315 40.7047 55.78 36.9414 51.1011 35.7622L51.1011 35.2594C55.7796 34.0803 59.4315 30.3168 60.4491 25.5764L60.5118 25.2844ZM60.8892 25.9803C59.8149 30.4795 56.4512 34.0893 52.098 35.5108C56.4516 36.9324 59.8149 40.5421 60.8892 45.0416C64.6667 43.5256 67.3332 39.8293 67.3332 35.5109C67.3332 31.1925 64.6667 27.4963 60.8892 25.9803ZM9.80396 25.9803C6.02668 27.4963 3.36002 31.1925 3.36002 35.5109C3.36002 39.8293 6.02667 43.5256 9.80387 45.0416C10.8781 40.5421 14.2417 36.9324 18.5952 35.5108C14.2418 34.0893 10.8783 30.4795 9.80396 25.9803ZM47.9782 37.3505L48.2034 37.3552C54.0526 37.4779 58.7567 42.2579 58.7567 48.1366C58.7567 54.0924 53.9284 58.9206 47.9727 58.9206C42.0939 58.9206 37.3139 54.2165 37.1912 48.3674L37.1864 48.1421L37.4088 48.106C42.8044 47.2296 47.0656 42.9684 47.9421 37.5729L47.9782 37.3505ZM22.7154 37.3505L22.7515 37.5729C23.6268 42.9615 27.8781 47.2187 33.264 48.1027H33.5078L33.5023 48.3674C33.3795 54.2165 28.5994 58.9206 22.7206 58.9206C16.7647 58.9206 11.9365 54.0923 11.9365 48.1366C11.9365 42.2579 16.6406 37.4776 22.4902 37.3552L22.7154 37.3505ZM22.2782 37.8807C16.814 38.112 12.455 42.6155 12.455 48.1366C12.455 53.806 17.0511 58.402 22.7206 58.402C28.2418 58.402 32.7451 54.0432 32.9768 48.5794C27.5423 47.6003 23.2573 43.3151 22.2782 37.8807ZM48.4154 37.8807C47.4363 43.3151 43.151 47.6002 37.7166 48.5793C37.9483 54.0432 42.4515 58.402 47.9727 58.402C53.6421 58.402 58.2382 53.806 58.2382 48.1366C58.2382 42.6155 53.8793 38.1124 48.4154 37.8807ZM25.816 61.0531C27.332 64.8305 31.0283 67.497 35.3468 67.497C39.6651 67.497 43.3615 64.8305 44.8775 61.0531C40.3779 59.9788 36.7682 56.6155 35.3466 52.262C33.9251 56.6152 30.3153 59.9788 25.816 61.0531ZM25.4121 60.613C30.1526 59.5954 33.9161 55.9435 35.0952 51.2651H35.598C36.7772 55.9439 40.5406 59.5954 45.2815 60.613L45.5735 60.6757L45.4704 60.956C43.954 65.0764 39.9939 68.0155 35.3468 68.0155C30.6996 68.0155 26.7395 65.0764 25.2232 60.956L25.1201 60.6757L25.4121 60.613Z" fill="#E09400"/>
</svg>
