<svg width="248" height="127" viewBox="0 0 248 127" fill="none" xmlns="http://www.w3.org/2000/svg">
<path d="M186.694 57.0425C189.46 56.6363 193.078 57.6847 193.755 60.769C193.842 61.1623 193.946 61.4062 193.784 61.7729C193.212 61.9173 191.208 61.8253 190.502 61.8091C188.14 56.7738 181.092 62.9494 189.749 63.6089C191.85 63.769 194.26 65.3487 194.389 67.731C194.448 68.9398 194.022 70.1226 193.207 71.0171C191.946 72.4134 190.174 72.869 188.361 72.9604C184.482 73.0437 182.002 71.5741 181.407 67.6265L184.77 67.6528C185.325 69.5659 186.597 70.1796 188.495 70.0845C189.465 70.0359 190.827 69.355 190.617 68.2358C190.103 65.4901 185.33 66.7028 183.532 64.8931C182.671 64.025 182.28 63.5277 182.139 62.2456C181.793 59.012 183.746 57.3979 186.694 57.0425ZM153.073 57.021C157.469 56.3937 161.535 59.4692 162.133 63.8735C162.731 68.278 159.631 72.3277 155.228 72.897C150.865 73.461 146.866 70.3939 146.273 66.0308C145.681 61.6673 148.718 57.6427 153.073 57.021ZM170.645 57.0298C175.028 56.3826 179.101 59.4232 179.732 63.812C180.363 68.2009 177.31 72.2676 172.924 72.8833C168.559 73.4958 164.522 70.4597 163.894 66.0933C163.266 61.7266 166.284 57.6737 170.645 57.0298ZM84.1164 57.0278C88.4869 56.3892 92.5479 59.4169 93.1877 63.7915C93.8273 68.1662 90.8031 72.2326 86.4328 72.8745C82.0604 73.5164 77.9966 70.4877 77.3566 66.1108C76.7167 61.734 79.7436 57.6669 84.1164 57.0278ZM101.74 57.0435C106.213 56.5771 108.702 58.7637 110.238 62.7368L106.56 62.7388C106.092 61.9274 105.578 61.147 104.708 60.7368C102.531 59.7098 100.093 60.4581 99.0041 62.5864C98.3714 63.8178 98.2539 65.2507 98.6779 66.5688C99.8436 70.1291 104.588 70.877 106.377 67.2798C106.665 66.753 109.546 66.9663 110.258 66.9771C109.092 70.2793 107.336 72.4175 103.674 72.894C101.615 73.1603 99.5343 72.5992 97.8869 71.3345C96.2504 70.0623 95.2046 68.0475 94.9504 66.0034C94.6682 63.8011 95.2673 61.5765 96.6164 59.814C97.9324 58.1268 99.6547 57.2977 101.74 57.0435ZM214.53 57.0425C218.405 56.3044 222.24 59.2886 222.9 63.0435C223.096 64.1538 223.095 64.8302 223.057 65.938L211.233 65.9468C211.321 66.2743 211.465 66.9102 211.611 67.188C213.269 70.3409 216.888 70.7669 218.831 67.7231L220.282 67.7202L222.687 67.7163C221.67 70.6363 219.615 72.465 216.507 72.8794C214.448 73.161 212.362 72.6126 210.707 71.354C205.352 67.2289 207.234 57.9682 214.53 57.0425ZM128.766 52.5435C132.011 52.6149 136.102 52.2761 139.241 52.7603C143.592 53.4315 145.364 59.2409 141.153 61.9038C144.122 63.3592 145.596 66.037 144.155 69.2036C142.251 73.0492 137.861 72.52 134.277 72.5034L128.766 72.5015C128.608 68.3315 128.806 64.0376 128.73 59.855C128.686 57.4534 128.707 54.945 128.766 52.5435ZM61.0197 52.5415C63.0158 52.5733 65.2471 53.1959 66.3605 55.0093C67.9578 57.6107 67.3509 60.2574 64.7873 61.9106C64.8582 61.9428 64.9289 61.9758 64.9992 62.0093C68.1526 63.5138 69.1279 66.4104 67.6408 69.5356C66.0746 72.1692 63.4622 72.536 60.6408 72.5122C57.9075 72.4894 55.1587 72.5011 52.424 72.4985C52.3869 71.5586 52.3639 70.599 52.3791 69.6587C52.4703 63.9832 52.222 58.2115 52.4123 52.5454C55.276 52.6011 58.1509 52.4958 61.0197 52.5415ZM74.5988 72.4224C74.3004 72.5527 71.5731 72.4935 71.049 72.4888C70.8672 65.9655 70.9927 58.3729 71.048 51.7954C72.2915 51.8291 73.3381 51.8328 74.5802 51.7856L74.5988 72.4224ZM201.531 52.9897C201.841 53.3828 201.715 56.6472 201.711 57.3931L206.226 57.3853C206.182 58.3136 206.221 59.5642 206.224 60.5161C204.719 60.5231 203.215 60.5205 201.711 60.5073C201.701 63.0077 201.704 65.5081 201.721 68.0083C202.831 70.0243 204.146 69.5597 206.227 69.4907C206.169 70.4536 206.416 71.5016 206.115 72.2788C205.732 72.5869 205.631 72.487 205.056 72.4917C196.265 72.6286 198.212 67.4015 198.076 60.5112L194.96 60.5347C194.935 59.4787 194.958 58.4551 194.98 57.3999L198.113 57.4009C198.107 55.9464 198.114 54.4919 198.133 53.0376L201.445 52.9888L201.531 52.9897ZM229.019 60.1099C230.343 57.3805 231.994 57.3979 234.729 57.3901L234.731 60.5151C231.405 60.496 229.909 60.9079 229.27 64.5063C229.059 66.2514 229.195 70.5347 229.214 72.4946L225.585 72.5005C225.451 68.1433 225.455 61.7436 225.598 57.4019L229.013 57.3862L229.019 60.1099ZM116.242 51.8022C116.345 55.9456 116.262 60.447 116.241 64.6089C116.926 63.4017 120.617 58.5763 121.583 57.4009L125.873 57.3931C124.705 59.1683 122.624 61.5929 121.269 63.3989C122.188 65.1616 123.788 67.7709 124.83 69.5103C125.416 70.4914 125.982 71.4833 126.531 72.4849C125.216 72.4987 123.901 72.4981 122.585 72.4849C121.351 70.6526 119.775 67.709 118.637 65.7251L116.259 68.354C116.253 69.7337 116.261 71.1141 116.281 72.4937L112.763 72.4927C112.601 69.4431 112.702 65.5664 112.705 62.4683C112.709 59.0973 112.604 55.1506 112.745 51.8179C113.966 51.8473 115.025 51.8736 116.242 51.8022ZM171.866 60.2368C165.821 60.7698 165.987 69.2835 171.869 69.6118C178.003 69.0263 177.283 60.389 171.866 60.2368ZM85.2121 60.2378C79.106 60.9971 79.6267 69.4751 85.3781 69.6001C91.5301 69.0725 90.6147 60.1558 85.2121 60.2378ZM154.287 60.3892C151.764 60.34 149.683 62.3565 149.652 64.8823C149.619 67.408 151.647 69.4777 154.171 69.4937C156.67 69.5094 158.715 67.5018 158.747 64.9995C158.779 62.4971 156.788 60.4379 154.287 60.3892ZM63.4787 64.3267C61.4904 63.1082 58.403 63.7015 56.1427 63.5923L56.1496 69.2915C58.4682 69.3243 62.1709 69.8244 63.8185 68.3608C64.7288 66.9998 65.1032 65.3221 63.4787 64.3267ZM140.823 67.3589C141.073 62.2751 136.025 63.7157 132.516 63.604L132.511 69.2964C134.641 69.3231 138.449 69.7568 140.021 68.5083L140.823 67.3589ZM219.525 63.1187C218.422 60.4339 216.997 59.9223 214.178 60.228C212.786 60.8395 212.068 61.4024 211.491 62.8794C211.458 62.9629 211.426 63.0469 211.397 63.1313L216.806 63.1177L219.525 63.1187ZM63.4504 58.561C63.8165 54.6983 58.1287 55.7894 56.1398 55.728L56.1506 60.8472C58.1068 60.8753 61.3021 61.2544 62.7101 60.1421C63.1092 59.6543 63.3909 59.1879 63.4504 58.561ZM136.627 55.7124C135.281 55.6502 133.859 55.7183 132.507 55.7319C132.506 57.2421 132.567 59.3819 132.503 60.8501C134.489 60.8763 137.639 61.2472 139.097 60.1333C140.823 57.579 139.492 55.8444 136.627 55.7124Z" fill="#FFFEFE"/>
<path d="M22.1953 58.6299C22.4093 58.5093 22.6702 58.5132 22.8809 58.6396L26.8633 61.0264C27.0749 61.1533 27.2051 61.3867 27.2051 61.6377V74.0645C27.2051 74.2933 27.3137 74.5088 27.4961 74.6416C28.0503 75.0452 28.7147 75.2617 29.3955 75.2617H29.4668C30.0979 75.2617 30.717 75.0865 31.2588 74.7559L39.1416 70.1426C39.3507 70.015 39.3193 69.6846 39.3193 69.4355V68.2529C39.3192 68.017 39.2034 67.7963 39.0117 67.665L37.5156 66.6406C37.3239 66.5094 37.2091 66.2887 37.209 66.0527C37.209 65.8067 37.3338 65.5782 37.5391 65.4492L41.542 62.9424C41.6505 62.8745 41.776 62.8389 41.9033 62.8389H42.1465C42.2744 62.8389 42.3997 62.8744 42.5088 62.9424L44.667 64.2959C44.8724 64.4248 44.998 64.6533 44.998 64.8994V72.8721C44.998 73.124 44.8659 73.3579 44.6523 73.4844L31.3994 81.3477C30.8088 81.6981 30.1378 81.8828 29.4551 81.8828C28.7782 81.8828 28.1131 81.701 27.5264 81.3564L22.0166 78.1211C21.8016 77.9946 21.6689 77.7603 21.6689 77.5068L21.6582 59.3516C21.6582 59.0933 21.7955 58.856 22.0166 58.7314L22.1953 58.6299ZM29.3643 46C29.9959 46 30.6181 46.1642 31.1699 46.4785L42.2803 52.8018C42.4998 52.9268 42.6356 53.1633 42.6357 53.4199V58.2188C42.6357 58.4693 42.5061 58.7016 42.2949 58.8291L30.6553 65.835C30.549 65.8991 30.4274 65.9336 30.3037 65.9336H30.1348C29.7526 65.9336 29.4415 65.6166 29.4414 65.2256V60.4717C29.4414 60.2289 29.4809 59.9189 29.6816 59.7891L34.9229 56.541C35.1236 56.4116 35.3994 56.192 35.3994 55.9492V55.7617C35.3991 55.5002 35.1036 55.2607 34.8779 55.1377L31.1338 52.9346C30.6401 52.6662 29.9583 52.6201 29.3994 52.6201C28.7994 52.6201 28.133 52.6427 27.6133 52.9502L19.7891 57.5273C19.5756 57.6545 19.6201 58.0372 19.6201 58.29L19.6738 75.5479C19.6741 75.9387 19.3644 76.2557 18.9814 76.2559H18.8496C18.7221 76.2559 18.5969 76.2203 18.4883 76.1523L14.332 73.5557C14.126 73.4272 14 73.1988 14 72.9521V54.8008C14 54.5468 14.1337 54.3116 14.3496 54.1855L27.5244 46.499C28.0847 46.1722 28.7189 46 29.3643 46Z" fill="white"/>
</svg>
